<svg width="254" height="40" viewBox="0 0 254 40" fill="none" xmlns="http://www.w3.org/2000/svg">
<g clip-path="url(#clip0_538_2690)">
<path d="M39.8804 20C39.9054 20 39.9295 20.0096 39.9477 20.0267C39.9659 20.0439 39.9769 20.0674 39.9783 20.0924C40.0544 20.8318 40.2936 25.8168 32.6882 25.8168C27.7956 25.8168 23.7999 23.2564 21.6798 21.5385C21.6602 21.5239 21.636 21.5168 21.6116 21.5183C21.5872 21.5199 21.5642 21.53 21.5466 21.547C21.5289 21.564 21.5179 21.5866 21.5154 21.6109C21.513 21.6352 21.5192 21.6597 21.533 21.6799C23.2563 23.8 25.8168 27.7793 25.8168 32.6937C25.8168 40.3045 20.8263 40.0598 20.0924 39.9783C20.0674 39.9769 20.0439 39.966 20.0267 39.9478C20.0095 39.9296 20 39.9055 20 39.8804V20H39.8804Z" fill="#ECEEE2"/>
<path d="M7.31169 14.1823C12.2043 14.1823 16.2 16.7428 18.3256 18.4661C18.3443 18.4848 18.3697 18.4953 18.3962 18.4953C18.4227 18.4953 18.4481 18.4848 18.4669 18.4661C18.4856 18.4473 18.4962 18.4219 18.4962 18.3954C18.4962 18.3689 18.4856 18.3435 18.4669 18.3247C16.7436 16.1991 14.1831 12.2198 14.1831 7.31086C14.1831 -0.299907 19.1736 -0.0552938 19.9075 0.0208139C19.933 0.0235093 19.9565 0.0355716 19.9736 0.0546578C19.9907 0.0737439 20.0001 0.0985271 19.9999 0.124137V19.9991H0.141258C0.117084 19.9992 0.0937116 19.9904 0.0756436 19.9744C0.0575755 19.9583 0.0460945 19.9362 0.0434089 19.9121C-0.0544438 19.1728 -0.293642 14.1823 7.31169 14.1823Z" fill="#ECEEE2"/>
<path d="M65.2303 13.6998H59.3972V30.0086H55.8201V13.6998H49.9707V10.5957H65.1922L65.2303 13.6998Z" fill="#ECEEE2"/>
<path d="M77.9296 30.0022L74.6678 23.9842C74.4289 23.9984 74.1892 23.9984 73.9503 23.9842H70.0144V29.9641H66.4102V10.5566H73.9503C78.6635 10.5566 81.5991 13.1335 81.5991 17.265C81.5991 20.0375 80.2672 22.1196 77.9677 23.1688L81.8492 29.9641L77.9296 30.0022ZM70.0307 20.9073H73.9666C76.3477 20.9073 77.772 19.7168 77.772 17.3031C77.772 14.8894 76.3585 13.6988 73.9666 13.6988H70.0307V20.9073Z" fill="#ECEEE2"/>
<path d="M99.6251 10.5957L92.6069 30.0031H88.9483L81.9355 10.5957H85.7899L90.7803 25.3986L95.7708 10.5957H99.6251Z" fill="#ECEEE2"/>
<path d="M113.302 26.899V30.0031H100.826V10.5957H104.403V26.9045L113.302 26.899Z" fill="#ECEEE2"/>
</g>
<g opacity="0.6">
<path d="M129.595 10.2524H122V29.8038H125.712V23.7708H129.595C134.45 23.7708 137.476 21.1732 137.476 17.0116C137.476 12.8499 134.45 10.2524 129.595 10.2524ZM129.595 20.6426H125.712V13.3806H129.595C132.051 13.3806 133.507 14.5816 133.507 17.0116C133.507 19.4415 132.051 20.6426 129.595 20.6426Z" fill="#ECEEE2"/>
<path d="M149.744 29.8317H153.827L146.289 10.2524H142.092L134.553 29.8317H138.637L140.493 24.7763H147.888L149.744 29.8317ZM141.578 21.7877L144.205 14.6375L146.803 21.7877H141.578Z" fill="#ECEEE2"/>
<path d="M156.989 23.9384C157.246 26.4521 159.844 27.0107 161.414 27.0107C162.956 27.0107 165.698 26.7035 165.698 23.9384C165.698 18.5198 153.79 23.7429 153.79 15.6151C153.79 12.1796 157.046 9.94516 161.329 10.001C165.241 10.0569 168.353 12.012 168.81 14.9168L165.041 15.3916C164.727 13.3248 162.699 12.9337 161.329 12.9337C159.901 12.9337 157.502 13.1013 157.502 15.6151C157.502 20.2236 169.41 15.252 169.41 23.9384C169.41 26.508 167.554 29.9993 161.414 29.9993C155.589 29.9993 153.505 26.8711 153.248 24.4132L156.989 23.9384Z" fill="#ECEEE2"/>
<path d="M173.703 23.9384C173.96 26.4521 176.558 27.0107 178.129 27.0107C179.67 27.0107 182.412 26.7035 182.412 23.9384C182.412 18.5198 170.505 23.7429 170.505 15.6151C170.505 12.1796 173.76 9.94516 178.043 10.001C181.955 10.0569 185.067 12.012 185.524 14.9168L181.755 15.3916C181.441 13.3248 179.413 12.9337 178.043 12.9337C176.615 12.9337 174.217 13.1013 174.217 15.6151C174.217 20.2236 186.124 15.252 186.124 23.9384C186.124 26.508 184.268 29.9993 178.129 29.9993C172.304 29.9993 170.219 26.8711 169.962 24.4132L173.703 23.9384Z" fill="#ECEEE2"/>
<path d="M194.5 10.2524H186.905V29.8038H190.617V23.7708H194.5C199.354 23.7708 202.381 21.1732 202.381 17.0116C202.381 12.8499 199.354 10.2524 194.5 10.2524ZM194.5 20.6426H190.617V13.3806H194.5C196.956 13.3806 198.412 14.5816 198.412 17.0116C198.412 19.4415 196.956 20.6426 194.5 20.6426Z" fill="#ECEEE2"/>
<path d="M202.916 20.0281C202.916 26.8152 207.199 30.0552 212.453 29.9993C217.707 29.9434 222.019 26.7873 221.99 20.0281C222.019 13.2689 217.707 10.1127 212.453 10.0569C207.199 10.001 202.916 13.241 202.916 20.0281ZM218.136 20.0281C218.136 25.1673 215.823 26.7873 212.453 26.8152C209.055 26.8431 206.771 25.1394 206.771 20.0281C206.771 14.9168 209.055 13.213 212.453 13.241C215.823 13.2689 218.136 14.8889 218.136 20.0281Z" fill="#ECEEE2"/>
<path d="M238.664 29.8038L234.666 22.9608C237.036 21.8994 238.407 19.8046 238.407 17.0116C238.407 12.8499 235.38 10.2524 230.526 10.2524H222.759V29.8038H226.471V23.7708H230.526C230.783 23.7708 231.04 23.7708 231.268 23.7429L234.609 29.8038H238.664ZM226.471 13.3806H230.526C232.981 13.3806 234.438 14.5816 234.438 17.0116C234.438 19.4415 232.981 20.6426 230.526 20.6426H226.471V13.3806Z" fill="#ECEEE2"/>
<path d="M254 10.2524H238.295V13.3806H244.32V29.8038H248.004V13.3806H254V10.2524Z" fill="#ECEEE2"/>
</g>
<defs>
<clipPath id="clip0_538_2690">
<rect width="113.303" height="40" fill="white"/>
</clipPath>
</defs>
</svg>
